<svg t="1733415904067" class="icon" viewBox="0 0 1024 1024" version="1.1" xmlns="http://www.w3.org/2000/svg" p-id="7554" width="200" height="200"><path d="M792.2176 901.1712H211.3024A109.056 109.056 0 0 1 102.4 792.2688V211.0976a109.0048 109.0048 0 0 1 108.9024-108.9024h580.9152A109.0048 109.0048 0 0 1 901.12 211.0976v580.9152a109.056 109.056 0 0 1-108.9024 109.1584zM211.3024 143.4112A67.9936 67.9936 0 0 0 143.36 211.3536v580.9152a68.0448 68.0448 0 0 0 67.9424 67.9424h580.9152a68.0448 68.0448 0 0 0 67.9424-67.9424V211.0976a67.9936 67.9936 0 0 0-67.9424-67.9424z" fill="#806EE5" opacity=".4" p-id="7555"></path><path d="M506.5728 320.0512a113.3056 113.3056 0 0 0-72.7552 23.552 102.7584 102.7584 0 0 0-41.5232 94.6688 2.56 2.56 0 0 0 2.56 2.5088h44.288a2.5088 2.5088 0 0 0 1.792-0.768 2.6112 2.6112 0 0 0 0.768-1.8944c-1.2288-50.1248 19.3536-75.1104 62.8736-76.3904a54.272 54.272 0 0 1 57.2928 55.6544c2.4064 18.2272-9.6256 38.8608-37.1712 62.72l-2.56 2.56a159.9488 159.9488 0 0 0-39.0656 50.7392 117.248 117.248 0 0 0-7.936 57.1392 2.56 2.56 0 0 0 2.56 2.4576h42.3936a2.6112 2.6112 0 0 0 2.56-2.816 91.2384 91.2384 0 0 1 43.4688-86.4768 112.64 112.64 0 0 0 45.1584-84.9408 99.1744 99.1744 0 0 0-104.704-98.7136z" fill="#806EE5" p-id="7556"></path><path d="M473.1904 628.3264m2.56 0l48.1792 0q2.56 0 2.56 2.56l0 50.0736q0 2.56-2.56 2.56l-48.1792 0q-2.56 0-2.56-2.56l0-50.0736q0-2.56 2.56-2.56Z" fill="#806EE5" p-id="7557"></path></svg>